<svg width="170" height="69" viewBox="0 0 170 69" fill="none" xmlns="http://www.w3.org/2000/svg">
<g clip-path="url(#clip0_177_109)">
<path d="M6.39917 31.8935C5.35605 31.6067 4.99095 30.9287 5.01703 29.8595C5.06919 28.1383 5.01703 26.4171 5.04311 24.696C5.04311 20.706 8.19857 18.3329 12.006 19.4543C12.1364 19.4803 12.2407 19.5064 12.4493 19.5586C12.4493 18.698 12.4493 17.8896 12.4493 17.0812C12.4754 13.2216 15.6308 10.8485 19.3079 11.8916C19.4643 11.9438 19.6208 11.9699 19.7773 11.9959C20.351 7.79735 21.8896 5.9458 24.9147 5.81541C27.6268 5.71109 29.6087 7.58872 30.3128 10.9528C31.5385 10.4834 32.7642 10.3269 34.042 10.7442C36.2065 11.4483 37.6147 13.352 37.6408 15.6729C37.6669 19.9237 37.6408 24.2005 37.6408 28.4512C37.6408 28.7642 37.6408 29.0771 37.6408 29.5465C38.8925 28.6338 40.1182 28.1383 41.5264 28.1383C45.5425 28.1644 48.3328 32.2847 46.716 35.9617C45.9336 37.7351 45.6468 39.5605 45.5946 41.4642C45.4642 45.5324 44.8384 49.4963 43.065 53.1733C41.2396 56.9807 38.4753 59.6668 34.1724 60.4752C33.5726 60.5795 32.9467 60.6838 32.3469 60.6838C27.8354 60.6838 23.2978 60.9967 18.7863 60.5273C14.6138 60.084 11.4323 57.7631 8.98091 54.4251C6.45133 50.9306 5.19958 46.9667 5.04311 42.6899C4.96487 40.6558 5.01703 38.5956 5.01703 36.5355C5.01703 35.3098 5.46036 34.8665 6.71211 34.7621C7.65092 34.7882 8.14641 35.2837 8.19856 36.3529C8.25072 38.1001 8.22464 39.8474 8.22464 41.6207C8.22464 44.9065 8.95483 47.9838 10.5456 50.8784C11.7452 53.0429 13.2577 54.9205 15.4744 56.1201C17.2477 57.1372 19.1775 57.5544 21.1855 57.5805C24.5235 57.6066 27.8876 57.6066 31.2256 57.5805C35.2416 57.5544 38.1623 55.7811 39.9878 52.1563C41.3439 49.4702 41.9437 46.6016 42.2566 43.6287C42.4392 42.0379 42.3088 40.4472 42.5695 38.8564C42.8043 37.5003 43.1172 36.1964 43.6388 34.9186C44.4211 33.0671 43.4301 31.5285 41.396 31.372C40.3268 31.3459 39.6227 31.8935 39.1794 32.8063C37.9537 35.2315 37.0931 37.7611 37.0671 40.5254C37.041 41.8815 36.5977 42.3509 35.2938 42.4813C30.9909 42.9246 28.5656 45.0108 27.5225 49.1834C27.3399 49.8614 27.0791 50.4612 26.4011 50.8002C24.6539 51.0349 23.8194 50.2526 24.1584 48.5314C24.9929 44.1763 27.5746 41.2034 31.7211 39.7691C33.1032 39.2737 33.8334 38.726 34.0159 37.1613C34.1985 35.5706 34.4071 34.032 34.4071 32.4151C34.381 27.0169 34.381 21.6188 34.4071 16.2467C34.4071 15.0471 34.0681 14.1343 32.8163 13.7692C31.721 13.6649 30.8083 14.343 30.5736 15.4382C30.4693 15.8816 30.4954 16.351 30.4954 16.7943C30.4954 22.036 30.4954 27.3038 30.4954 32.5455C30.4954 33.1714 30.5475 33.7712 30.2346 34.3449C29.7652 35.0751 29.0872 35.4141 28.2266 35.1272C27.3921 34.8404 27.0531 34.1623 27.0009 33.3278C26.9748 32.9106 26.9748 32.4933 26.9748 32.05C26.9748 25.4522 26.9748 18.8545 26.9748 12.2828C26.9748 11.9177 26.9748 11.5787 26.9748 11.2136C26.8966 9.80536 26.1403 9.10125 24.7321 9.12733C23.7672 9.36204 23.2717 10.0401 23.1413 11.005C23.0892 11.4483 23.0892 11.9177 23.0892 12.361C23.0892 19.4543 23.0892 26.5215 23.0892 33.6147C23.0892 34.5535 23.037 35.4663 22.0461 35.9617C20.4292 36.2486 19.5947 35.5966 19.5686 33.8755C19.5165 30.4071 19.5686 26.9387 19.5426 23.4703C19.5426 21.358 19.5686 19.2456 19.5165 17.1333C19.4904 15.699 18.9428 15.0992 17.5085 14.8645C16.4914 15.0471 15.9438 15.5686 15.7351 16.5335C15.6308 17.0551 15.6569 17.5766 15.6569 18.0982C15.6569 23.366 15.6569 28.6338 15.6569 33.9016C15.6569 34.7361 15.6569 35.5445 14.9006 36.1182C13.2838 36.7702 12.1885 36.0921 12.1624 34.3449C12.1103 31.4502 12.1624 28.5555 12.1364 25.687C12.1364 25.2958 12.1364 24.9046 12.1103 24.5134C12.006 23.1574 11.3279 22.5054 9.91972 22.4533C8.72013 22.7923 8.25072 23.3921 8.22464 24.7221C8.17249 26.5475 8.25072 28.3469 8.19856 30.1724C8.17249 31.2155 7.72916 31.7892 6.92074 32.0239C6.73819 32.0239 6.55564 32.05 6.39917 31.8935Z" fill="black"/>
<path d="M6.39916 31.8936C7.72915 31.5024 7.93777 31.2155 7.96385 29.8334C7.96385 28.0079 7.93777 26.2085 7.96385 24.383C7.98993 23.1052 8.66796 22.349 9.89363 22.1403C9.24168 28.8685 9.63285 35.6227 9.63285 42.3509C9.63285 47.2536 11.1975 51.6608 14.7442 55.2074C15.0571 55.5203 15.5004 55.7811 15.344 56.3288C12.9187 55.0509 11.3019 53.0168 10.0762 50.6437C8.66796 47.9316 7.96385 45.0109 7.93777 41.9336C7.91169 40.1082 7.91169 38.3088 7.93777 36.4833C7.93777 35.5966 7.59876 34.9968 6.7121 34.7621C6.13838 34.2667 6.45132 33.6147 6.39916 33.041C6.37309 32.6759 6.39916 32.2847 6.39916 31.8936Z" fill="#F0B885"/>
<path d="M15.344 56.3288C14.6659 55.2857 13.6228 54.5815 12.9187 53.5645C11.0411 50.9306 9.89364 47.9838 9.52854 44.8022C9.03306 40.6297 9.39815 36.4311 9.31992 32.2586C9.26776 29.7291 9.34599 27.1995 9.29384 24.6699C9.29384 23.7572 9.45031 22.9227 9.89364 22.1664C11.4583 22.036 12.4232 22.8966 12.4232 24.4874C12.4493 27.7211 12.4232 30.9808 12.4232 34.2145C12.4232 35.8314 13.1534 36.4051 14.692 35.9878C16.2828 35.5184 16.4132 35.3359 16.4132 33.6669C16.4132 28.2948 16.4132 22.8966 16.4132 17.5245C16.4132 16.9508 16.3871 16.351 16.5696 15.7773C16.7261 15.2557 16.9347 14.8124 17.4824 14.6037C19.021 14.6559 19.8294 15.4904 19.8294 17.0551C19.8294 22.688 19.8294 28.3208 19.8294 33.9537C19.8294 35.4923 20.3771 35.9617 21.9417 35.8053C23.6107 35.2576 23.8194 34.9969 23.8194 33.2235C23.8194 25.9477 23.8194 18.6719 23.8194 11.4222C23.8194 10.4834 23.7933 9.51851 24.706 8.86656C26.1925 8.68401 27.2356 9.54459 27.2617 11.0571C27.2878 12.6218 27.2617 14.1865 27.2617 15.7251C27.2617 21.5405 27.2617 27.356 27.2617 33.1714C27.2617 34.032 27.4964 34.7361 28.383 34.9708C29.1132 35.1794 29.6348 34.8143 30.052 34.2406C31.043 33.5104 31.2777 32.5194 31.2516 31.3459C31.1995 26.3128 31.2256 21.2797 31.2256 16.2206C31.2256 15.5947 31.2256 14.9688 31.4342 14.3951C31.695 13.7171 32.1122 13.2738 32.9206 13.5345C34.1724 13.8736 34.6679 14.5516 34.6679 15.9598C34.6679 21.2276 34.5896 26.4693 34.72 31.7371C34.7722 34.1884 34.2506 36.5615 33.9898 38.9607C33.9377 39.4562 33.6508 39.4562 33.2857 39.5605C28.5134 40.708 25.5144 43.6548 24.4192 48.4532C24.028 50.1483 24.7321 50.8524 26.4272 50.6177C27.4703 50.383 27.9919 49.6788 28.4352 48.74C30.2607 44.9587 33.3118 42.9507 37.5365 42.7942C38.3449 42.7681 38.4492 42.4291 38.3188 41.7511C37.7712 38.387 38.6839 35.3359 40.2747 32.4151C40.5355 31.9196 40.8484 31.4763 41.2917 31.1373C43.2215 31.0591 44.8123 32.8063 44.056 34.4753C42.6739 37.5786 42.726 40.8644 42.4392 44.0981C42.1784 47.0971 41.4743 49.9918 40.0139 52.6518C38.1363 56.0941 35.2677 57.8935 31.3038 57.8152C27.2356 57.7631 23.1935 57.9978 19.1253 57.6588C17.7953 57.5544 16.4914 57.1111 15.344 56.3288Z" fill="#F0CFA4"/>
<path d="M41.3178 31.1112C40.6919 32.389 39.8835 33.5625 39.4141 34.8925C38.6057 37.2656 38.1102 39.6909 38.6839 42.1944C38.8665 42.9507 38.5535 43.0289 37.9537 43.0028C34.9547 42.9768 32.3991 43.9938 30.3389 46.2365C29.5305 47.1232 28.8785 48.1402 28.4613 49.2616C28.0962 50.2526 27.5225 50.7741 26.4272 50.5916C26.9227 50.1743 27.1574 49.6788 27.2878 49.0269C27.9919 45.2456 31.1473 42.4813 35.033 42.2466C36.5194 42.1423 36.9106 41.7772 36.8584 40.2646C36.7802 37.396 37.8494 34.8665 39.0751 32.389C39.5184 31.5545 40.3008 31.059 41.3178 31.1112Z" fill="#F0B885"/>
<path d="M24.706 8.84048C24.2627 9.70106 24.1062 10.5877 24.1062 11.5526C24.1323 18.9066 24.1062 26.2607 24.1062 33.6408C24.1062 35.388 23.6629 35.8313 21.9417 35.7792C22.5937 35.3359 22.7762 34.71 22.7762 33.9276C22.7502 26.4171 22.7502 18.9066 22.7762 11.3961C22.7762 9.85752 23.376 9.07518 24.706 8.84048Z" fill="#EFB885"/>
<path d="M17.5085 14.5777C16.9348 15.2818 16.7261 16.0902 16.7261 17.0029C16.7522 22.7662 16.7261 28.5555 16.7261 34.3188C16.7261 35.727 16.022 36.2747 14.7181 35.9617C15.2397 35.4923 15.3961 34.9186 15.3961 34.2145C15.3701 28.5295 15.3701 22.8444 15.3961 17.1594C15.3701 15.5686 16.022 14.7863 17.5085 14.5777Z" fill="#F0B885"/>
<path d="M32.9467 13.5345C31.9818 13.6389 31.5907 14.1083 31.5646 15.36C31.5385 16.9508 31.5646 18.5415 31.5646 20.1323C31.5646 24.1223 31.5646 28.1122 31.5646 32.1283C31.5646 33.5626 31.4342 33.719 30.0781 34.2667C30.2607 33.8233 30.2085 33.38 30.2085 32.9106C30.2085 27.2777 30.2085 21.6448 30.2085 15.9859C30.2085 14.1865 31.382 13.1695 32.9467 13.5345Z" fill="#EFB885"/>
<path d="M55.3445 51.352C54.4352 51.352 53.7312 51.1027 53.2325 50.604C52.7632 50.076 52.5285 49.3573 52.5285 48.448V22.84C52.5285 21.9013 52.7778 21.1973 53.2765 20.728C53.7752 20.2293 54.4792 19.98 55.3885 19.98H65.9925C69.3952 19.98 72.0205 20.8307 73.8685 22.532C75.7165 24.2333 76.6405 26.6093 76.6405 29.66C76.6405 32.7107 75.7165 35.1013 73.8685 36.832C72.0205 38.5333 69.3952 39.384 65.9925 39.384H58.1605V48.448C58.1605 49.3573 57.9258 50.076 57.4565 50.604C56.9872 51.1027 56.2832 51.352 55.3445 51.352ZM58.1605 34.94H65.1125C67.1072 34.94 68.6178 34.5 69.6445 33.62C70.6712 32.7107 71.1845 31.3907 71.1845 29.66C71.1845 27.9293 70.6712 26.624 69.6445 25.744C68.6178 24.864 67.1072 24.424 65.1125 24.424H58.1605V34.94ZM78.317 51.352C77.613 51.352 77.041 51.1907 76.601 50.868C76.1903 50.5453 75.941 50.12 75.853 49.592C75.765 49.0347 75.8676 48.4187 76.161 47.744L87.777 22.004C88.1583 21.1533 88.613 20.552 89.141 20.2C89.6983 19.8187 90.329 19.628 91.033 19.628C91.7076 19.628 92.309 19.8187 92.837 20.2C93.3943 20.552 93.8636 21.1533 94.245 22.004L105.905 47.744C106.228 48.4187 106.345 49.0347 106.257 49.592C106.169 50.1493 105.92 50.5893 105.509 50.912C105.098 51.2053 104.556 51.352 103.881 51.352C103.06 51.352 102.414 51.1613 101.945 50.78C101.505 50.3693 101.109 49.7533 100.757 48.932L97.897 42.288L100.273 43.828H81.705L84.081 42.288L81.265 48.932C80.8836 49.7827 80.4876 50.3987 80.077 50.78C79.6663 51.1613 79.0796 51.352 78.317 51.352ZM90.945 26.096L84.785 40.748L83.641 39.34H98.337L97.237 40.748L91.033 26.096H90.945ZM113.567 51.352C112.658 51.352 111.954 51.1027 111.455 50.604C110.986 50.076 110.751 49.3573 110.751 48.448V22.84C110.751 21.9013 111 21.1973 111.499 20.728C111.998 20.2293 112.702 19.98 113.611 19.98H124.215C127.618 19.98 130.243 20.8013 132.091 22.444C133.939 24.0573 134.863 26.3307 134.863 29.264C134.863 31.1707 134.438 32.8133 133.587 34.192C132.766 35.5707 131.563 36.6267 129.979 37.36C128.395 38.0933 126.474 38.46 124.215 38.46L124.611 37.8H126.063C127.266 37.8 128.307 38.0933 129.187 38.68C130.096 39.2667 130.888 40.1907 131.563 41.452L134.863 47.568C135.215 48.184 135.376 48.7853 135.347 49.372C135.318 49.9587 135.098 50.4427 134.687 50.824C134.276 51.176 133.675 51.352 132.883 51.352C132.091 51.352 131.446 51.1907 130.947 50.868C130.448 50.516 130.008 49.988 129.627 49.284L125.183 41.1C124.655 40.1027 124.024 39.4427 123.291 39.12C122.587 38.768 121.678 38.592 120.563 38.592H116.383V48.448C116.383 49.3573 116.148 50.076 115.679 50.604C115.21 51.1027 114.506 51.352 113.567 51.352ZM116.383 34.412H123.247C125.271 34.412 126.796 34.0013 127.823 33.18C128.879 32.3293 129.407 31.068 129.407 29.396C129.407 27.7533 128.879 26.5213 127.823 25.7C126.796 24.8493 125.271 24.424 123.247 24.424H116.383V34.412ZM143.907 51C142.939 51 142.191 50.7507 141.663 50.252C141.165 49.724 140.915 48.976 140.915 48.008V22.972C140.915 22.004 141.165 21.2707 141.663 20.772C142.191 20.244 142.939 19.98 143.907 19.98H159.615C160.349 19.98 160.906 20.1707 161.287 20.552C161.698 20.9333 161.903 21.476 161.903 22.18C161.903 22.9133 161.698 23.4853 161.287 23.896C160.906 24.2773 160.349 24.468 159.615 24.468H146.327V33.004H158.647C159.41 33.004 159.982 33.1947 160.363 33.576C160.745 33.9573 160.935 34.5147 160.935 35.248C160.935 35.9813 160.745 36.5387 160.363 36.92C159.982 37.3013 159.41 37.492 158.647 37.492H146.327V46.512H159.615C160.349 46.512 160.906 46.7027 161.287 47.084C161.698 47.4653 161.903 48.0227 161.903 48.756C161.903 49.4893 161.698 50.0467 161.287 50.428C160.906 50.8093 160.349 51 159.615 51H143.907Z" fill="black"/>
</g>
<defs>
<clipPath id="clip0_177_109">
<rect width="170" height="69" fill="white"/>
</clipPath>
</defs>
</svg>
